<svg width="104" height="20" viewBox="0 0 104 20" fill="none" xmlns="http://www.w3.org/2000/svg">
<g id="Logo" clipPath="url(#clip0_4065_20)">
<path id="Vector" d="M36.5982 12.107C35.9133 11.8588 35.1575 11.6638 34.3308 11.5237L33.5138 11.3835C32.8902 11.2755 32.3955 11.1111 32.0297 10.8936C31.6638 10.676 31.4801 10.3328 31.4801 9.86544C31.4801 9.42874 31.6671 9.09033 32.0409 8.8486C32.4148 8.60688 32.9289 8.48602 33.5831 8.48602C34.2374 8.48602 34.8143 8.62944 35.2655 8.9179C35.7167 9.20635 36.0132 9.70107 36.1534 10.4021L38.3966 9.77037C38.1468 8.77448 37.6054 7.98324 36.7722 7.39828C35.9391 6.81492 34.8755 6.52164 33.5831 6.52164C32.2907 6.52164 31.1691 6.82137 30.3586 7.42084C29.548 8.02031 29.1435 8.86633 29.1435 9.95569C29.1435 10.6873 29.3304 11.2884 29.7043 11.7557C30.0782 12.223 30.5842 12.5888 31.2239 12.8547C31.8621 13.119 32.5711 13.3221 33.3494 13.4623L34.1439 13.6025C34.9061 13.7427 35.483 13.9215 35.873 14.1391C36.263 14.3566 36.4564 14.6999 36.4564 15.1672C36.4564 15.6345 36.2501 16.0164 35.8376 16.313C35.425 16.6095 34.8368 16.7561 34.073 16.7561C33.5589 16.7561 33.0803 16.6788 32.6356 16.5224C32.1924 16.3677 31.8218 16.1018 31.5253 15.728C31.2288 15.3541 31.0193 14.8481 30.8936 14.21L28.6504 14.7466C28.8679 16.0712 29.461 17.0591 30.4262 17.7149C31.3915 18.3692 32.6066 18.6963 34.0714 18.6963C35.5362 18.6963 36.6723 18.3772 37.5296 17.7375C38.3869 17.0993 38.8156 16.2034 38.8156 15.0512C38.8156 14.2728 38.6174 13.6492 38.2193 13.1819C37.8213 12.7145 37.2798 12.3568 36.595 12.107H36.5982Z" fill="white"/>
<path id="Vector_2" d="M49.3916 7.24679C48.7132 6.85682 47.9381 6.66344 47.0663 6.66344C46.3347 6.66344 45.7304 6.75368 45.255 6.93256C44.7796 7.11143 44.3977 7.34187 44.1092 7.62227C43.8208 7.90266 43.5984 8.19112 43.4437 8.48763H43.0698V2.01273H40.6623V18.3692H43.0698V12.5502C43.0698 11.3045 43.3696 10.3537 43.969 9.69945C44.5685 9.0452 45.3678 8.71807 46.3637 8.71807C47.2355 8.71807 47.922 8.95495 48.4199 9.43034C48.9179 9.90572 49.1676 10.6422 49.1676 11.6381V18.3676H51.5752V11.4511C51.5752 10.4536 51.3802 9.60116 50.9918 8.89211C50.6019 8.18306 50.0685 7.63516 49.3916 7.24518V7.24679Z" fill="white"/>
<path id="Vector_3" d="M62.4656 12.6678C62.4656 13.9135 62.1659 14.8691 61.5664 15.5298C60.9669 16.1921 60.1757 16.5224 59.1943 16.5224C58.3064 16.5224 57.6134 16.2856 57.1139 15.8102C56.6159 15.3348 56.3662 14.6 56.3662 13.6025V6.84877H53.9586V13.7652C53.9586 14.7627 54.1536 15.6184 54.542 16.3355C54.9319 17.0526 55.4686 17.6054 56.1534 17.9937C56.8383 18.3837 57.6167 18.5771 58.4901 18.5771C59.581 18.5771 60.4061 18.3708 60.9669 17.9583C61.5277 17.5457 61.9177 17.1058 62.1352 16.6385H62.5091V18.3676H64.8683V6.84877H62.4624V12.6678H62.4656Z" fill="white"/>
<path id="Vector_4" d="M78.5175 3.04085H76.1099V6.84876H71.904V3.04085H69.4964V6.84876H66.3186V8.88244H69.4964V16.0551C69.4964 16.7561 69.7027 17.3169 70.1152 17.7375C70.5278 18.1581 71.0853 18.3692 71.7863 18.3692H74.9642V16.3355H72.5566C72.1199 16.3355 71.9024 16.1018 71.9024 15.6345V8.88083H76.1083V16.0535C76.1083 16.7545 76.3146 17.3153 76.7271 17.7359C77.1396 18.1565 77.6972 18.3676 78.3982 18.3676H81.576V16.3339H79.1685C78.7318 16.3339 78.5142 16.1002 78.5142 15.6329V8.87922H81.9483V6.84554H78.5142V3.03763L78.5175 3.04085Z" fill="white"/>
<path id="Vector_5" d="M91.9184 7.25808C91.0853 6.76819 90.1152 6.52164 89.0097 6.52164C87.9042 6.52164 86.8713 6.76658 86.0075 7.25808C85.1438 7.74797 84.4686 8.44251 83.9868 9.33688C83.5033 10.2329 83.2616 11.2803 83.2616 12.4793V12.7597C83.2616 13.9441 83.5065 14.9835 83.998 15.8795C84.4879 16.7754 85.1696 17.4684 86.043 17.9599C86.9148 18.4498 87.9365 18.6963 89.1048 18.6963C90.149 18.6963 91.0047 18.532 91.6751 18.2064C92.3455 17.8793 92.8853 17.4748 93.2995 16.9914C93.712 16.5079 94.0279 16.0487 94.2454 15.612L92.2585 14.5838C92.0087 15.114 91.6541 15.5813 91.1949 15.9858C90.7356 16.3903 90.054 16.5933 89.1499 16.5933C88.183 16.5933 87.3773 16.2936 86.7311 15.6941C86.0849 15.0947 85.7465 14.2889 85.7143 13.2753H94.5709V12.3648C94.5709 11.1965 94.3373 10.1765 93.8699 9.30304C93.4026 8.43123 92.7516 7.74958 91.9184 7.25808ZM85.7368 11.4286C85.8609 10.5568 86.2074 9.87511 86.7762 9.38361C87.3451 8.89373 88.0815 8.64717 88.9839 8.64717C89.8864 8.64717 90.6196 8.89211 91.1804 9.38361C91.7412 9.87511 92.0522 10.5568 92.115 11.4286H85.7368Z" fill="white"/>
<path id="Vector_6" d="M101.674 6.80203C101.067 6.80203 100.556 6.91484 100.143 7.14044C99.7309 7.36605 99.4311 7.72057 99.2442 8.20401H98.8703V6.84877H96.5095V18.3692H98.9171V11.5929C98.9171 10.705 99.1652 10.0475 99.6648 9.61889C100.163 9.19024 100.802 8.97591 101.581 8.97591H103.052V6.80203H101.674Z" fill="white"/>
<path id="Vector_7" d="M20.2014 0H0V0.636532H20.2014V0Z" fill="white"/>
<path id="Vector_8" d="M20.2014 3.88203H0V5.26146H20.2014V3.88203Z" fill="white"/>
<path id="Vector_9" d="M20.2014 7.28064H0V9.05487H20.2014V7.28064Z" fill="white"/>
<path id="Vector_10" d="M20.2014 10.3747H0V12.7306H20.2014V10.3747Z" fill="white"/>
<path id="Vector_11" d="M20.2014 13.3768H0V16.0664H20.2014V13.3768Z" fill="white"/>
<path id="Vector_12" d="M20.2014 16.7142H0V20H20.2014V16.7142Z" fill="white"/>
</g>
<defs>
<clipPath id="clip0_4065_20">
<rect width="103.052" height="20" fill="white"/>
</clipPath>
</defs>
</svg>
